# xmcd
#
# Track frame offsets:
#	150
#	17763
#	30991
#	46881
#
# Disc length: 847 seconds
#
# Revision: 1
# Processed by: cddbd v1.5.2PL0 Copyright (c) Steve Scherf et al.
# Submitted via: EasyCDDAExtractor 7.0.3.1
#
DISCID=22034d04
DTITLE=Billy James - Outlaw Line Dances
DYEAR=1900
DGENRE=Country
TTITLE0=Chain Of Sin
TTITLE1=Friday Nite Boogie
TTITLE2=Aftershock Is Shocking
TTITLE3=Angel Of My Eye
EXTD=
EXTT0=(Album Version]\n
EXTT1=
EXTT2=
EXTT3=Bob Clearmountain Remix]\n
PLAYORDER=
